<svg width="24" height="24" viewBox="0 0 24 24" fill="none" xmlns="http://www.w3.org/2000/svg">
<path d="M12 18.5C14.1217 18.5 16.1566 17.6571 17.6569 16.1569C19.1571 14.6566 20 12.6217 20 10.5C20 8.37827 19.1571 6.34344 17.6569 4.84315C16.1566 3.34285 14.1217 2.5 12 2.5C9.87827 2.5 7.84344 3.34285 6.34315 4.84315C4.84285 6.34344 4 8.37827 4 10.5C4 12.6217 4.84285 14.6566 6.34315 16.1569C7.84344 17.6571 9.87827 18.5 12 18.5ZM12 18.5V21.5M18.326 20C16.4749 21.3048 14.2648 22.0036 12 22C9.73525 22.0036 7.5251 21.3048 5.674 20" stroke="black" stroke-linecap="square"/>
<path d="M15 10.5C15 11.2956 14.6839 12.0587 14.1213 12.6213C13.5587 13.1839 12.7956 13.5 12 13.5C11.2044 13.5 10.4413 13.1839 9.87868 12.6213C9.31607 12.0587 9 11.2956 9 10.5C9 9.70435 9.31607 8.94129 9.87868 8.37868C10.4413 7.81607 11.2044 7.5 12 7.5C12.7956 7.5 13.5587 7.81607 14.1213 8.37868C14.6839 8.94129 15 9.70435 15 10.5Z" stroke="black" stroke-linecap="square"/>
</svg>
