<svg width="24" height="24" viewBox="0 0 24 24" fill="none" xmlns="http://www.w3.org/2000/svg">
<path d="M6.78864 2.26703L8.2115 1.83846C8.8592 1.64305 9.55588 1.69003 10.1715 1.97062C10.7871 2.25122 11.2795 2.74625 11.5569 3.36332L12.4424 5.33303C12.6809 5.86365 12.7474 6.45566 12.6324 7.02598C12.5174 7.5963 12.2268 8.11631 11.8012 8.51303L10.2541 9.9556C10.2356 9.97399 10.2199 9.99509 10.2078 10.0182C10.0458 10.349 10.2918 11.2327 11.0624 12.5682C11.9315 14.0733 12.6026 14.6682 12.9138 14.5765L14.9444 13.955C15.5005 13.7852 16.0958 13.7937 16.6468 13.9792C17.1979 14.1647 17.6771 14.518 18.0172 14.9896L19.2755 16.7322C19.6705 17.2793 19.8535 17.9513 19.7905 18.6232C19.7274 19.2951 19.4226 19.9212 18.9326 20.3853L17.8501 21.4096C17.4736 21.7662 17.0165 22.0264 16.5177 22.1681C16.0189 22.3097 15.4932 22.3286 14.9855 22.223C11.9709 21.5956 9.27007 19.1682 6.85978 14.9939C4.44864 10.817 3.69692 7.25989 4.6655 4.33446C4.82763 3.84469 5.10527 3.40115 5.47496 3.0413C5.84465 2.68146 6.29467 2.41589 6.78864 2.26703ZM7.1615 3.49789C6.8651 3.58716 6.59456 3.74647 6.37271 3.96234C6.15087 4.17822 5.98424 4.44432 5.88692 4.73817C5.05207 7.25903 5.72835 10.4613 7.97407 14.351C10.2181 18.2382 12.6506 20.4239 15.2486 20.9639C15.5533 21.0271 15.8687 21.0157 16.1679 20.9306C16.4672 20.8455 16.7414 20.6893 16.9672 20.4753L18.0489 19.4519C18.3128 19.2021 18.4771 18.8649 18.5111 18.5031C18.5452 18.1413 18.4467 17.7794 18.2341 17.4847L16.9758 15.7413C16.7927 15.4874 16.5347 15.2972 16.238 15.1973C15.9414 15.0974 15.6209 15.0928 15.3215 15.1842L13.2858 15.8073C12.1595 16.1425 11.1001 15.2039 9.94978 13.2102C8.97521 11.5233 8.6375 10.3045 9.05407 9.45332C9.13521 9.2876 9.24321 9.1416 9.37807 9.01532L10.9252 7.57274C11.1544 7.35913 11.311 7.07909 11.373 6.77194C11.4349 6.46479 11.3991 6.14595 11.2706 5.86017L10.3844 3.89132C10.235 3.55897 9.96978 3.29234 9.63823 3.14123C9.30667 2.99013 8.93145 2.96487 8.58264 3.07017L7.1615 3.49789Z" fill="black"/>
</svg>
