<svg width="20" height="20" viewBox="0 0 20 20" fill="none" xmlns="http://www.w3.org/2000/svg">
<path fill-rule="evenodd" clip-rule="evenodd" d="M4.23278 4.22418C7.39528 1.06585 12.5369 1.09918 15.7186 4.28168C18.902 7.46502 18.9353 12.6092 15.772 15.7717C12.6086 18.9342 7.46528 18.9017 4.28195 15.7184C3.38643 14.8267 2.70981 13.7396 2.30524 12.5424C1.90068 11.3451 1.77918 10.0704 1.95028 8.81835C1.97272 8.65403 2.05951 8.50535 2.19156 8.40501C2.32362 8.30468 2.49013 8.26092 2.65445 8.28335C2.81877 8.30578 2.96746 8.39258 3.06779 8.52463C3.16812 8.65669 3.21188 8.82319 3.18945 8.98752C3.04419 10.0486 3.14702 11.1289 3.48985 12.1436C3.83269 13.1582 4.4062 14.0795 5.16528 14.835C7.86945 17.5384 12.2219 17.5542 14.8886 14.8884C17.5545 12.2217 17.5386 7.86918 14.8353 5.16502C12.1328 2.46335 7.78278 2.44585 5.11612 5.10835L5.73945 5.11085C5.82153 5.11123 5.90272 5.12778 5.9784 5.15954C6.05409 5.19131 6.12277 5.23766 6.18054 5.29597C6.2383 5.35428 6.28402 5.42339 6.31507 5.49937C6.34613 5.57534 6.36192 5.65669 6.36153 5.73877C6.36115 5.82084 6.3446 5.90204 6.31284 5.97772C6.28108 6.0534 6.23472 6.12209 6.17641 6.17986C6.1181 6.23762 6.04899 6.28334 5.97302 6.31439C5.89704 6.34545 5.81569 6.36123 5.73362 6.36085L3.61195 6.35085C3.4472 6.34997 3.28946 6.28408 3.17304 6.16751C3.05662 6.05093 2.99094 5.8931 2.99028 5.72835L2.97945 3.60835C2.97901 3.52627 2.99474 3.44492 3.02575 3.36892C3.05675 3.29292 3.10242 3.22378 3.16015 3.16543C3.21788 3.10709 3.28653 3.06068 3.36219 3.02887C3.43785 2.99706 3.51904 2.98046 3.60112 2.98002C3.68319 2.97958 3.76455 2.99531 3.84055 3.02632C3.91654 3.05732 3.98569 3.10299 4.04403 3.16072C4.10238 3.21845 4.14879 3.2871 4.1806 3.36276C4.21241 3.43842 4.22901 3.51961 4.22945 3.60168L4.23278 4.22418ZM9.99945 6.04085C10.1652 6.04085 10.3242 6.1067 10.4414 6.22391C10.5586 6.34112 10.6244 6.50009 10.6244 6.66585V9.74085L12.5253 11.6409C12.585 11.6985 12.6326 11.7674 12.6654 11.8437C12.6982 11.9199 12.7155 12.0019 12.7163 12.0849C12.717 12.1679 12.7013 12.2502 12.6699 12.327C12.6385 12.4038 12.5921 12.4736 12.5334 12.5323C12.4748 12.5911 12.405 12.6375 12.3282 12.669C12.2514 12.7004 12.1692 12.7163 12.0862 12.7156C12.0032 12.7149 11.9212 12.6977 11.8449 12.665C11.7686 12.6323 11.6996 12.5847 11.642 12.525L9.37528 10.2584V6.66668C9.37528 6.50092 9.44113 6.34195 9.55834 6.22474C9.67555 6.10753 9.83452 6.04168 10.0003 6.04168" fill="#28475C"/>
</svg>