<svg width="19" height="19" viewBox="0 0 19 19" fill="none" xmlns="http://www.w3.org/2000/svg">
  <path
    d="M15.7515 5.39919L11.2241 2.20877C9.99013 1.33794 8.09587 1.38544 6.90901 2.31169L2.97115 5.40711C2.18515 6.02461 1.56421 7.29127 1.56421 8.28877L1.56421 13.7513C1.56421 15.77 3.19123 17.4167 5.19553 17.4167H13.6686C15.6729 17.4167 17.2999 15.7779 17.2999 13.7592V8.39169C17.2999 7.32294 16.6161 6.00877 15.7515 5.39919ZM10.0216 14.25C10.0216 14.5746 9.75433 14.8438 9.43207 14.8438C9.10981 14.8438 8.84257 14.5746 8.84257 14.25V11.875C8.84257 11.5504 9.10981 11.2813 9.43207 11.2813C9.75433 11.2813 10.0216 11.5504 10.0216 11.875V14.25Z"
    fill="#28475C" />
</svg>