<svg width="20" height="20" viewBox="0 0 20 20" fill="none" xmlns="http://www.w3.org/2000/svg">
  <path
    d="M1.66675 10.1701C1.66675 8.26258 1.66675 7.30925 2.10008 6.51925C2.53175 5.72841 3.32258 5.23841 4.90341 4.25675L6.57008 3.22258C8.24091 2.18508 9.07675 1.66675 10.0001 1.66675C10.9234 1.66675 11.7584 2.18508 13.4301 3.22258L15.0967 4.25675C16.6776 5.23841 17.4684 5.72841 17.9009 6.51925C18.3334 7.31008 18.3334 8.26258 18.3334 10.1692V11.4376C18.3334 14.6876 18.3334 16.3134 17.3567 17.3234C16.3801 18.3334 14.8092 18.3334 11.6667 18.3334H8.33341C5.19091 18.3334 3.61925 18.3334 2.64341 17.3234C1.66758 16.3134 1.66675 14.6884 1.66675 11.4376V10.1701Z"
    stroke="#777E90" />
  <path d="M10 12.5V15" stroke="#777E90" stroke-linecap="round" />
</svg>
