<svg width="24" height="24" viewBox="0 0 24 24" fill="none" xmlns="http://www.w3.org/2000/svg">
<path d="M5.63608 18.364C4.80034 17.5283 4.13739 16.5361 3.68509 15.4442C3.2328 14.3522 3 13.1819 3 12C3 10.8181 3.2328 9.64775 3.68509 8.55581C4.13739 7.46387 4.80034 6.47172 5.63608 5.63599M18.3641 5.63599C19.1998 6.47172 19.8628 7.46387 20.3151 8.55581C20.7674 9.64775 21.0002 10.8181 21.0002 12C21.0002 13.1819 20.7674 14.3522 20.3151 15.4442C19.8628 16.5361 19.1998 17.5283 18.3641 18.364M8.46408 15.536C7.99965 15.0717 7.63123 14.5204 7.37987 13.9137C7.12852 13.307 6.99915 12.6567 6.99915 12C6.99915 11.3433 7.12852 10.693 7.37987 10.0863C7.63123 9.47955 7.99965 8.9283 8.46408 8.46399M15.5361 8.46399C16.0005 8.9283 16.3689 9.47955 16.6203 10.0863C16.8716 10.693 17.001 11.3433 17.001 12C17.001 12.6567 16.8716 13.307 16.6203 13.9137C16.3689 14.5204 16.0005 15.0717 15.5361 15.536M13.0001 12C13.0001 12.2652 12.8947 12.5196 12.7072 12.7071C12.5196 12.8946 12.2653 13 12.0001 13C11.7349 13 11.4805 12.8946 11.293 12.7071C11.1054 12.5196 11.0001 12.2652 11.0001 12C11.0001 11.7348 11.1054 11.4804 11.293 11.2929C11.4805 11.1053 11.7349 11 12.0001 11C12.2653 11 12.5196 11.1053 12.7072 11.2929C12.8947 11.4804 13.0001 11.7348 13.0001 12Z" stroke="black" stroke-linecap="round" stroke-linejoin="round"/>
</svg>
