<svg width="20" height="20" viewBox="0 0 20 20" fill="none" xmlns="http://www.w3.org/2000/svg">
<path d="M17.4 5.30547L10.525 1.54141C10.3643 1.45263 10.1836 1.40607 10 1.40607C9.81637 1.40607 9.63574 1.45263 9.475 1.54141L2.6 5.30547C2.42797 5.3996 2.28441 5.53824 2.18435 5.70688C2.0843 5.87553 2.03141 6.06797 2.03125 6.26406V13.7359C2.03141 13.932 2.0843 14.1245 2.18435 14.2931C2.28441 14.4618 2.42797 14.6004 2.6 14.6945L9.475 18.4586C9.63579 18.5472 9.8164 18.5937 10 18.5937C10.1836 18.5937 10.3642 18.5472 10.525 18.4586L17.4 14.6945C17.572 14.6004 17.7156 14.4618 17.8156 14.2931C17.9157 14.1245 17.9686 13.932 17.9688 13.7359V6.26406C17.9686 6.06797 17.9157 5.87553 17.8156 5.70688C17.7156 5.53824 17.572 5.3996 17.4 5.30547ZM9.92188 2.36328C9.94487 2.3507 9.97066 2.34411 9.99687 2.34411C10.0231 2.34411 10.0489 2.3507 10.0719 2.36328L16.6023 5.9375L13.9508 7.38828L7.34766 3.77422L9.92188 2.36328ZM9.53125 17.4219L3.04688 13.8727C3.02291 13.8588 3.00306 13.8389 2.98933 13.8149C2.9756 13.7908 2.9685 13.7636 2.96875 13.7359V6.77031L9.53125 10.3641V17.4219ZM3.39766 5.9375L6.37187 4.30859L12.9742 7.92266L10 9.55L3.39766 5.9375ZM17.0312 13.7359C17.0315 13.7636 17.0244 13.7908 17.0107 13.8149C16.9969 13.8389 16.9771 13.8588 16.9531 13.8727L10.4688 17.4219V10.3625L13.2812 8.82266V11.875C13.2812 11.9993 13.3306 12.1186 13.4185 12.2065C13.5065 12.2944 13.6257 12.3438 13.75 12.3438C13.8743 12.3438 13.9935 12.2944 14.0815 12.2065C14.1694 12.1186 14.2188 11.9993 14.2188 11.875V8.31016L17.0312 6.77031V13.7359Z" fill="#777E90"/>
</svg>
