<svg width="24" height="24" viewBox="0 0 24 24" fill="none" xmlns="http://www.w3.org/2000/svg">
<path d="M17.339 18.646C17.2323 18.7527 17.111 18.8027 16.975 18.796C16.839 18.7893 16.7243 18.7393 16.631 18.646L11.985 13.994C11.8397 13.8493 11.7227 13.6753 11.634 13.472C11.5447 13.2687 11.5 13.0593 11.5 12.844V5.952L8.76 8.692C8.64933 8.80267 8.53033 8.858 8.403 8.858C8.27567 8.858 8.15667 8.80267 8.046 8.692C7.936 8.582 7.88433 8.461 7.891 8.329C7.897 8.197 7.94867 8.082 8.046 7.984L11.435 4.59C11.5217 4.50334 11.6107 4.44234 11.702 4.407C11.7933 4.37167 11.8927 4.354 12 4.354C12.1073 4.354 12.2067 4.37167 12.298 4.407C12.3893 4.44234 12.4787 4.50334 12.566 4.59L15.954 7.973C16.064 8.08367 16.119 8.20267 16.119 8.33C16.119 8.45734 16.064 8.57634 15.954 8.687C15.844 8.79767 15.722 8.85034 15.588 8.845C15.454 8.83967 15.3383 8.78867 15.241 8.692L12.5 5.952V12.85C12.5 12.9273 12.513 13.001 12.539 13.071C12.565 13.141 12.6097 13.2083 12.673 13.273L17.339 17.939C17.445 18.045 17.498 18.1627 17.498 18.292C17.498 18.4213 17.4447 18.5393 17.338 18.646M6.662 18.652C6.55133 18.542 6.50033 18.4197 6.509 18.285C6.51767 18.1503 6.56833 18.037 6.661 17.945L9.533 15.067C9.63033 14.9697 9.746 14.918 9.88 14.912C10.014 14.906 10.136 14.9577 10.246 15.067C10.356 15.1763 10.4103 15.2953 10.409 15.424C10.4077 15.5527 10.3513 15.6717 10.24 15.781L7.37 18.652C7.26333 18.7587 7.145 18.812 7.015 18.812C6.885 18.812 6.76733 18.7587 6.662 18.652Z" fill="#1C1E24"/>
</svg>
 