<svg width="20" height="20" viewBox="0 0 20 20" fill="none" xmlns="http://www.w3.org/2000/svg">
<path d="M9.375 5.62494V11.9824L7.75875 10.3662L6.875 11.2499L10 14.3749L13.125 11.2499L12.2413 10.3662L10.625 11.9824V5.62494H9.375ZM12.3487 16.6562L10 18.0262L3.125 14.0162V11.2499H1.875V14.3749C1.875 14.5968 1.99313 14.8031 2.185 14.9149L9.685 19.2899C9.7806 19.3457 9.88931 19.3751 10 19.3751C10.1107 19.3751 10.2194 19.3457 10.315 19.2899L12.9912 17.7287L12.3487 16.6562ZM17.815 5.08494L15.1469 3.52869L14.5037 4.60057L16.875 5.98369V14.0162L14.5081 15.3968L15.1513 16.4687L17.815 14.9149C18.0069 14.8031 18.125 14.5968 18.125 14.3749V5.62494C18.125 5.40307 18.0069 5.19682 17.815 5.08494ZM3.125 5.98369L10 1.97307L12.3444 3.34057L12.9875 2.26869L10.315 0.709941C10.2194 0.654153 10.1107 0.624756 10 0.624756C9.88931 0.624756 9.7806 0.654153 9.685 0.709941L2.185 5.08494C2.09064 5.14 2.01236 5.21884 1.95797 5.31359C1.90357 5.40834 1.87497 5.51569 1.875 5.62494V8.74994H3.125V5.98369Z" fill="#FCFCFD"/>
</svg>
