<svg width="24" height="24" viewBox="0 0 24 24" fill="none" xmlns="http://www.w3.org/2000/svg">
<path d="M5 14V12H7V14H5ZM3 12V10H5V12H3ZM12 5V3H14V5H12ZM4.5 7.5H7.5V4.5H4.5V7.5ZM3 9V3H9V9H3ZM4.5 19.5H7.5V16.5H4.5V19.5ZM3 21V15H9V21H3ZM16.5 7.5H19.5V4.5H16.5V7.5ZM15 9V3H21V9H15ZM9 14V12H7V10H11V14H9ZM10 9V5H12V7H14V9H10ZM5.25 6.75V5.25H6.75V6.75H5.25ZM5.25 18.75V17.25H6.75V18.75H5.25ZM17.25 6.75V5.25H18.75V6.75H17.25Z" fill="black"/>
<path d="M17.5 21.25C16.625 21.25 15.8507 20.9844 15.1771 20.4533C14.5035 19.9222 14.066 19.2433 13.8646 18.4167C13.8368 18.3125 13.8576 18.2171 13.9271 18.1304C13.9965 18.0437 14.0903 17.9933 14.2083 17.9792C14.3194 17.9653 14.4201 17.9861 14.5104 18.0417C14.6007 18.0972 14.6632 18.1806 14.6979 18.2917C14.8646 18.9167 15.2083 19.4271 15.7292 19.8229C16.25 20.2188 16.8403 20.4167 17.5 20.4167C18.3125 20.4167 19.0018 20.1337 19.5679 19.5679C20.134 19.0021 20.4169 18.3128 20.4167 17.5C20.4164 16.6872 20.1335 15.9981 19.5679 15.4325C19.0024 14.8669 18.3131 14.5839 17.5 14.5833C17.0208 14.5833 16.5729 14.6944 16.1562 14.9167C15.7396 15.1389 15.3889 15.4444 15.1042 15.8333H15.8333C15.9514 15.8333 16.0504 15.8733 16.1304 15.9533C16.2104 16.0333 16.2503 16.1322 16.25 16.25C16.2497 16.3678 16.2097 16.4668 16.13 16.5471C16.0503 16.6274 15.9514 16.6672 15.8333 16.6667H14.1667C14.0486 16.6667 13.9497 16.6267 13.87 16.5467C13.7903 16.4667 13.7503 16.3678 13.75 16.25V14.5833C13.75 14.4653 13.79 14.3664 13.87 14.2867C13.95 14.2069 14.0489 14.1669 14.1667 14.1667C14.2844 14.1664 14.3835 14.2064 14.4637 14.2867C14.544 14.3669 14.5839 14.4658 14.5833 14.5833V15.1458C14.9375 14.7014 15.3699 14.3576 15.8804 14.1146C16.391 13.8715 16.9308 13.75 17.5 13.75C18.0208 13.75 18.5087 13.849 18.9637 14.0471C19.4188 14.2451 19.8146 14.5124 20.1513 14.8488C20.4879 15.1851 20.7553 15.581 20.9533 16.0363C21.1514 16.4915 21.2503 16.9794 21.25 17.5C21.2497 18.0206 21.1508 18.5085 20.9533 18.9637C20.7558 19.419 20.4885 19.8149 20.1513 20.1513C19.814 20.4876 19.4182 20.755 18.9637 20.9533C18.5093 21.1517 18.0214 21.2506 17.5 21.25ZM17.9167 17.3333L18.9583 18.375C19.0347 18.4514 19.0729 18.5486 19.0729 18.6667C19.0729 18.7847 19.0347 18.8819 18.9583 18.9583C18.8819 19.0347 18.7847 19.0729 18.6667 19.0729C18.5486 19.0729 18.4514 19.0347 18.375 18.9583L17.2083 17.7917C17.1667 17.75 17.1354 17.7032 17.1146 17.6513C17.0938 17.5993 17.0833 17.5454 17.0833 17.4896V15.8333C17.0833 15.7153 17.1233 15.6164 17.2033 15.5367C17.2833 15.4569 17.3822 15.4169 17.5 15.4167C17.6178 15.4164 17.7168 15.4564 17.7971 15.5367C17.8774 15.6169 17.9172 15.7158 17.9167 15.8333V17.3333Z" fill="black"/>
</svg>
