<svg width="96" height="96" viewBox="0 0 96 96" fill="none" xmlns="http://www.w3.org/2000/svg">
<path d="M53.3333 96V85.3333H64V96H53.3333ZM42.6667 85.3333V58.6667H53.3333V85.3333H42.6667ZM85.3333 69.3333V48H96V69.3333H85.3333ZM74.6667 48V37.3333H85.3333V48H74.6667ZM10.6667 58.6667V48H21.3333V58.6667H10.6667ZM0 48V37.3333H10.6667V48H0ZM48 10.6667V0H58.6667V10.6667H48ZM8 24H24V8H8V24ZM0 26.6667V5.33333C0 3.82222 0.512001 2.55645 1.536 1.536C2.56 0.515556 3.82578 0.00355556 5.33333 0H26.6667C28.1778 0 29.4453 0.512001 30.4693 1.536C31.4933 2.56 32.0036 3.82578 32 5.33333V26.6667C32 28.1778 31.488 29.4453 30.464 30.4693C29.44 31.4933 28.1742 32.0036 26.6667 32H5.33333C3.82222 32 2.55645 31.488 1.536 30.464C0.515556 29.44 0.00355556 28.1742 0 26.6667ZM8 88H24V72H8V88ZM0 90.6667V69.3333C0 67.8222 0.512001 66.5564 1.536 65.536C2.56 64.5156 3.82578 64.0036 5.33333 64H26.6667C28.1778 64 29.4453 64.512 30.4693 65.536C31.4933 66.56 32.0036 67.8258 32 69.3333V90.6667C32 92.1778 31.488 93.4453 30.464 94.4693C29.44 95.4933 28.1742 96.0036 26.6667 96H5.33333C3.82222 96 2.55645 95.488 1.536 94.464C0.515556 93.44 0.00355556 92.1742 0 90.6667ZM72 24H88V8H72V24ZM64 26.6667V5.33333C64 3.82222 64.512 2.55645 65.536 1.536C66.56 0.515556 67.8258 0.00355556 69.3333 0H90.6667C92.1778 0 93.4453 0.512001 94.4693 1.536C95.4933 2.56 96.0036 3.82578 96 5.33333V26.6667C96 28.1778 95.488 29.4453 94.464 30.4693C93.44 31.4933 92.1742 32.0036 90.6667 32H69.3333C67.8222 32 66.5564 31.488 65.536 30.464C64.5156 29.44 64.0036 28.1742 64 26.6667ZM74.6667 96V80H64V69.3333H85.3333V85.3333H96V96H74.6667ZM53.3333 58.6667V48H74.6667V58.6667H53.3333ZM32 58.6667V48H21.3333V37.3333H53.3333V48H42.6667V58.6667H32ZM37.3333 32V10.6667H48V21.3333H58.6667V32H37.3333ZM12 20V12H20V20H12ZM12 84V76H20V84H12ZM76 20V12H84V20H76Z" fill="#3F4352"/>
</svg>
